<svg xmlns="http://www.w3.org/2000/svg" viewBox="0 0 410 400"><path fill="none" stroke="#04d404" stroke-width="75" d="M41 228A163.3 163.3 0 0 1 204.5 65" opacity="undefined"/><path fill="none" stroke="#ffd256" stroke-width="75" d="M89.3 112.3c60.8-63.3 170.3-63.1 230.9.4" opacity="undefined"/><path fill="none" stroke="#ff7f00" stroke-width="75" d="M206.2 65.7a163.2 163.2 0 0 1 163 163.5" opacity="undefined"/><path fill="none" stroke="#f07" stroke-width="75" d="M322 114a163.8 163.8 0 0 1 31.4 186.4" opacity="undefined"/><path fill="#840c4c" fill-rule="evenodd" d="M304.2 305.2c0 .5 1.8 3.7 4.4 7.8 5 8 5.6 9.1 5.6 12.2 0 8.4-8.4 13.5-16.8 10.3-2.6-1-4.8-1-3 0 .5.3 1 .4 1 .3.2-.1 1.2.2 2.4.7a12.3 12.3 0 0 0 16.8-13.8 44 44 0 0 0-7-12.6 60 60 0 0 1-3-5l-.3-.9v1"/><path fill="#c40454" fill-rule="evenodd" d="M330.9 234a124.3 124.3 0 0 1-22.4 65.3c-6.6 5.5 1.8 12.7 5 17.6 4.7 7.2 1.1 19.7-8.3 20.6-2.9.4-13.1-3.7-6 1.2 4.1 5 9.3 9.1 13.7 14 5 5.2 10.3 10 15.1 15.4 4.5 4.5 11.7 7.7 17.5 3.6 6-3.8 9.8-10 14.8-14.8 7.7-10 15.5-20 21.4-31.4 3.7-6.6 7.1-13.2 9.8-20.3 2.9-5.8 5-12 6.6-18.1a155 155 0 0 0 7.6-37.1l.4-22.4h-75.2v6.5"/><path fill="#9bfb04" fill-rule="evenodd" d="M4 227.6c0 13.4-.7 27 2.6 40A204 204 0 0 0 53 360.8c5 5.2 10 12.2 17.7 13 7.4.1 11.6-7 16.7-11.1 10.5-10.5 21.4-20.7 30.8-32.1 2.8-6.3-.3-13-5-17.3a126.6 126.6 0 0 1-31.5-59.5c-2-8.6-2.1-17.6-2.9-26.4-12.6-.2-25.3.1-37.9.1"/><path fill="#04283f" fill-rule="evenodd" d="M198.8 190c-12.3 1.2-22 11-27.6 21.5a38 38 0 0 0 9.5 44.7c19.3 17.2 41.4 30.9 62.6 45.4C260.4 313 278 325 295 334.8c7.8 3.8 20.4 1 20.2-9.6-.7-8.7-9.4-14.3-10.6-22.8-10.4-17-22-33.4-33-50.1-12-17.6-23.7-35.4-38-51.3a38.2 38.2 0 0 0-34.8-11Z"/><path fill="#fbc81b" d="m101 278 163.5-163"/></svg>
